<svg width="40" height="40" viewBox="0 0 40 40" fill="none" xmlns="http://www.w3.org/2000/svg">
<path fill-rule="evenodd" clip-rule="evenodd" d="M12.5 5H27.5067C31.645 5 35 8.355 35 12.4933V27.5083C35 31.645 31.645 35 27.5067 35H12.4933C8.355 35 5 31.645 5 27.5067V12.5C5 8.35833 8.35833 5 12.5 5V5Z" stroke="white" stroke-width="2" stroke-linecap="round" stroke-linejoin="round"/>
<path d="M13.5333 18.5V27.5" stroke="white" stroke-width="2" stroke-linecap="round" stroke-linejoin="round"/>
<path d="M19.5317 27.5V22.25C19.5317 20.1783 21.21 18.5 23.2817 18.5V18.5C25.3533 18.5 27.0317 20.1783 27.0317 22.25V27.5" stroke="white" stroke-width="2" stroke-linecap="round" stroke-linejoin="round"/>
<path d="M13.53 13.0633C13.3233 13.0633 13.155 13.2316 13.1567 13.4383C13.1567 13.645 13.325 13.8133 13.5317 13.8133C13.7383 13.8133 13.9067 13.645 13.9067 13.4383C13.9067 13.23 13.7383 13.0633 13.53 13.0633" stroke="white" stroke-width="2" stroke-linecap="round" stroke-linejoin="round"/>
</svg>
