<svg width="1077" height="3072" viewBox="0 0 1077 3072" fill="none" xmlns="http://www.w3.org/2000/svg">
<path d="M668.845 1921V2070.36C668.845 2097.18 674.24 2123.73 684.71 2148.42L1075.84 3071" stroke="url(#paint0_linear_458_371)" stroke-width="2"/>
<path d="M648.845 1921V2076.06C648.845 2099.18 652.853 2122.12 660.692 2143.87L994.845 3071" stroke="url(#paint1_linear_458_371)" stroke-width="2"/>
<path d="M408.845 1921V2070.36C408.845 2097.18 403.449 2123.73 392.98 2148.42L1.84473 3071" stroke="url(#paint2_linear_458_371)" stroke-width="2"/>
<path d="M628.845 1921V2081.94C628.845 2101.21 631.63 2120.38 637.115 2138.86L913.845 3071" stroke="url(#paint3_linear_458_371)" stroke-width="2"/>
<path d="M428.845 1921V2076.06C428.845 2099.18 424.836 2122.12 416.997 2143.87L82.8447 3071" stroke="url(#paint4_linear_458_371)" stroke-width="2"/>
<path d="M608.845 1921V2087.98C608.845 2103.27 610.6 2118.52 614.076 2133.42L832.845 3071" stroke="url(#paint5_linear_458_371)" stroke-width="2"/>
<path d="M448.845 1921V2081.94C448.845 2101.21 446.059 2120.38 440.574 2138.86L163.845 3071" stroke="url(#paint6_linear_458_371)" stroke-width="2"/>
<path d="M588.845 1921V2094.14C588.845 2105.36 589.789 2116.56 591.667 2127.62L751.845 3071" stroke="url(#paint7_linear_458_371)" stroke-width="2"/>
<path d="M468.845 1921V2087.98C468.845 2103.27 467.089 2118.52 463.613 2133.42L244.845 3071" stroke="url(#paint8_linear_458_371)" stroke-width="2"/>
<path d="M568.845 1921V2111L670.845 3071" stroke="url(#paint9_linear_458_371)" stroke-width="2"/>
<path d="M488.845 1921V2094.14C488.845 2105.36 487.901 2116.56 486.023 2127.62L325.845 3071" stroke="url(#paint10_linear_458_371)" stroke-width="2"/>
<path d="M548.845 1921V2111L589.845 3071" stroke="url(#paint11_linear_458_371)" stroke-width="2"/>
<path d="M508.845 1921V2111L406.845 3071" stroke="url(#paint12_linear_458_371)" stroke-width="2"/>
<path d="M528.845 1921V2111L487.845 3071" stroke="url(#paint13_linear_458_371)" stroke-width="2"/>
<path d="M668.845 1921V1001.64C668.845 974.822 674.24 948.274 684.71 923.579L1075.84 1" stroke="url(#paint14_linear_458_371)" stroke-width="2"/>
<path d="M648.845 1921V995.942C648.845 972.822 652.853 949.878 660.692 928.128L994.845 1" stroke="url(#paint15_linear_458_371)" stroke-width="2"/>
<path d="M408.845 1921L408.845 1001.64C408.845 974.822 403.449 948.274 392.98 923.579L1.84473 1" stroke="url(#paint16_linear_458_371)" stroke-width="2"/>
<path d="M628.845 1921V990.061C628.845 970.788 631.63 951.617 637.115 933.141L913.845 1" stroke="url(#paint17_linear_458_371)" stroke-width="2"/>
<path d="M428.845 1921L428.845 995.942C428.845 972.822 424.836 949.878 416.997 928.128L82.8447 1" stroke="url(#paint18_linear_458_371)" stroke-width="2"/>
<path d="M608.845 1921V984.024C608.845 968.725 610.6 953.477 614.076 938.578L832.845 1" stroke="url(#paint19_linear_458_371)" stroke-width="2"/>
<path d="M448.845 1921L448.845 990.061C448.845 970.788 446.059 951.617 440.574 933.141L163.845 1" stroke="url(#paint20_linear_458_371)" stroke-width="2"/>
<path d="M588.845 1921V977.859C588.845 966.639 589.789 955.44 591.667 944.379L751.845 1" stroke="url(#paint21_linear_458_371)" stroke-width="2"/>
<path d="M468.845 1921L468.845 984.024C468.845 968.725 467.089 953.477 463.613 938.578L244.845 1" stroke="url(#paint22_linear_458_371)" stroke-width="2"/>
<path d="M568.845 1921V961L670.845 1" stroke="url(#paint23_linear_458_371)" stroke-width="2"/>
<path d="M488.845 1921L488.845 977.859C488.845 966.639 487.901 955.44 486.023 944.379L325.845 1" stroke="url(#paint24_linear_458_371)" stroke-width="2"/>
<path d="M548.845 1921V961L589.845 1" stroke="url(#paint25_linear_458_371)" stroke-width="2"/>
<path d="M508.845 1921L508.845 961L406.845 1" stroke="url(#paint26_linear_458_371)" stroke-width="2"/>
<path d="M528.845 1921V961L487.845 1" stroke="url(#paint27_linear_458_371)" stroke-width="2"/>
<defs>
<linearGradient id="paint0_linear_458_371" x1="1075.84" y1="2111" x2="668.845" y2="2111" gradientUnits="userSpaceOnUse">
<stop offset="0.369792" stop-color="#181818" stop-opacity="0"/>
<stop offset="1" stop-color="#181818" stop-opacity="0.3"/>
</linearGradient>
<linearGradient id="paint1_linear_458_371" x1="994.845" y1="2111" x2="648.845" y2="2111" gradientUnits="userSpaceOnUse">
<stop offset="0.369792" stop-color="#181818" stop-opacity="0"/>
<stop offset="1" stop-color="#181818" stop-opacity="0.3"/>
</linearGradient>
<linearGradient id="paint2_linear_458_371" x1="1.84473" y1="2111" x2="408.845" y2="2111" gradientUnits="userSpaceOnUse">
<stop offset="0.369792" stop-color="#181818" stop-opacity="0"/>
<stop offset="1" stop-color="#181818" stop-opacity="0.3"/>
</linearGradient>
<linearGradient id="paint3_linear_458_371" x1="913.845" y1="2111" x2="628.845" y2="2111" gradientUnits="userSpaceOnUse">
<stop offset="0.369792" stop-color="#181818" stop-opacity="0"/>
<stop offset="1" stop-color="#181818" stop-opacity="0.3"/>
</linearGradient>
<linearGradient id="paint4_linear_458_371" x1="82.8447" y1="2111" x2="428.845" y2="2111" gradientUnits="userSpaceOnUse">
<stop offset="0.369792" stop-color="#181818" stop-opacity="0"/>
<stop offset="1" stop-color="#181818" stop-opacity="0.3"/>
</linearGradient>
<linearGradient id="paint5_linear_458_371" x1="832.845" y1="2111" x2="608.845" y2="2111" gradientUnits="userSpaceOnUse">
<stop offset="0.369792" stop-color="#181818" stop-opacity="0"/>
<stop offset="1" stop-color="#181818" stop-opacity="0.3"/>
</linearGradient>
<linearGradient id="paint6_linear_458_371" x1="163.845" y1="2111" x2="448.845" y2="2111" gradientUnits="userSpaceOnUse">
<stop offset="0.369792" stop-color="#181818" stop-opacity="0"/>
<stop offset="1" stop-color="#181818" stop-opacity="0.3"/>
</linearGradient>
<linearGradient id="paint7_linear_458_371" x1="751.845" y1="2111" x2="588.845" y2="2111" gradientUnits="userSpaceOnUse">
<stop offset="0.369792" stop-color="#181818" stop-opacity="0"/>
<stop offset="1" stop-color="#181818" stop-opacity="0.3"/>
</linearGradient>
<linearGradient id="paint8_linear_458_371" x1="244.845" y1="2111" x2="468.845" y2="2111" gradientUnits="userSpaceOnUse">
<stop offset="0.369792" stop-color="#181818" stop-opacity="0"/>
<stop offset="1" stop-color="#181818" stop-opacity="0.3"/>
</linearGradient>
<linearGradient id="paint9_linear_458_371" x1="670.845" y1="2111" x2="568.845" y2="2111" gradientUnits="userSpaceOnUse">
<stop offset="0.369792" stop-color="#181818" stop-opacity="0"/>
<stop offset="1" stop-color="#181818" stop-opacity="0.3"/>
</linearGradient>
<linearGradient id="paint10_linear_458_371" x1="325.845" y1="2111" x2="488.845" y2="2111" gradientUnits="userSpaceOnUse">
<stop offset="0.369792" stop-color="#181818" stop-opacity="0"/>
<stop offset="1" stop-color="#181818" stop-opacity="0.3"/>
</linearGradient>
<linearGradient id="paint11_linear_458_371" x1="589.845" y1="2111" x2="548.845" y2="2111" gradientUnits="userSpaceOnUse">
<stop offset="0.369792" stop-color="#181818" stop-opacity="0"/>
<stop offset="1" stop-color="#181818" stop-opacity="0.3"/>
</linearGradient>
<linearGradient id="paint12_linear_458_371" x1="406.845" y1="2111" x2="508.845" y2="2111" gradientUnits="userSpaceOnUse">
<stop offset="0.369792" stop-color="#181818" stop-opacity="0"/>
<stop offset="1" stop-color="#181818" stop-opacity="0.3"/>
</linearGradient>
<linearGradient id="paint13_linear_458_371" x1="487.845" y1="2111" x2="528.845" y2="2111" gradientUnits="userSpaceOnUse">
<stop offset="0.369792" stop-color="#181818" stop-opacity="0"/>
<stop offset="1" stop-color="#181818" stop-opacity="0.3"/>
</linearGradient>
<linearGradient id="paint14_linear_458_371" x1="1075.84" y1="961" x2="668.845" y2="961" gradientUnits="userSpaceOnUse">
<stop offset="0.708333" stop-color="#181818" stop-opacity="0"/>
<stop offset="1" stop-color="#181818" stop-opacity="0.3"/>
</linearGradient>
<linearGradient id="paint15_linear_458_371" x1="994.845" y1="961" x2="648.845" y2="961" gradientUnits="userSpaceOnUse">
<stop offset="0.708333" stop-color="#181818" stop-opacity="0"/>
<stop offset="1" stop-color="#181818" stop-opacity="0.3"/>
</linearGradient>
<linearGradient id="paint16_linear_458_371" x1="1.84473" y1="961" x2="408.845" y2="961" gradientUnits="userSpaceOnUse">
<stop offset="0.708333" stop-color="#181818" stop-opacity="0"/>
<stop offset="1" stop-color="#181818" stop-opacity="0.3"/>
</linearGradient>
<linearGradient id="paint17_linear_458_371" x1="913.845" y1="961" x2="628.845" y2="961" gradientUnits="userSpaceOnUse">
<stop offset="0.708333" stop-color="#181818" stop-opacity="0"/>
<stop offset="1" stop-color="#181818" stop-opacity="0.3"/>
</linearGradient>
<linearGradient id="paint18_linear_458_371" x1="82.8447" y1="961" x2="428.845" y2="961" gradientUnits="userSpaceOnUse">
<stop offset="0.708333" stop-color="#181818" stop-opacity="0"/>
<stop offset="1" stop-color="#181818" stop-opacity="0.3"/>
</linearGradient>
<linearGradient id="paint19_linear_458_371" x1="832.845" y1="961" x2="608.845" y2="961" gradientUnits="userSpaceOnUse">
<stop offset="0.708333" stop-color="#181818" stop-opacity="0"/>
<stop offset="1" stop-color="#181818" stop-opacity="0.3"/>
</linearGradient>
<linearGradient id="paint20_linear_458_371" x1="163.845" y1="961" x2="448.845" y2="961" gradientUnits="userSpaceOnUse">
<stop offset="0.708333" stop-color="#181818" stop-opacity="0"/>
<stop offset="1" stop-color="#181818" stop-opacity="0.3"/>
</linearGradient>
<linearGradient id="paint21_linear_458_371" x1="751.845" y1="961" x2="588.845" y2="961" gradientUnits="userSpaceOnUse">
<stop offset="0.708333" stop-color="#181818" stop-opacity="0"/>
<stop offset="1" stop-color="#181818" stop-opacity="0.3"/>
</linearGradient>
<linearGradient id="paint22_linear_458_371" x1="244.845" y1="961" x2="468.845" y2="961" gradientUnits="userSpaceOnUse">
<stop offset="0.708333" stop-color="#181818" stop-opacity="0"/>
<stop offset="1" stop-color="#181818" stop-opacity="0.3"/>
</linearGradient>
<linearGradient id="paint23_linear_458_371" x1="670.845" y1="961" x2="568.845" y2="961" gradientUnits="userSpaceOnUse">
<stop offset="0.708333" stop-color="#181818" stop-opacity="0"/>
<stop offset="1" stop-color="#181818" stop-opacity="0.3"/>
</linearGradient>
<linearGradient id="paint24_linear_458_371" x1="325.845" y1="961" x2="488.845" y2="961" gradientUnits="userSpaceOnUse">
<stop offset="0.708333" stop-color="#181818" stop-opacity="0"/>
<stop offset="1" stop-color="#181818" stop-opacity="0.3"/>
</linearGradient>
<linearGradient id="paint25_linear_458_371" x1="589.845" y1="961" x2="548.845" y2="961" gradientUnits="userSpaceOnUse">
<stop offset="0.708333" stop-color="#181818" stop-opacity="0"/>
<stop offset="1" stop-color="#181818" stop-opacity="0.3"/>
</linearGradient>
<linearGradient id="paint26_linear_458_371" x1="406.845" y1="961" x2="508.845" y2="961" gradientUnits="userSpaceOnUse">
<stop offset="0.708333" stop-color="#181818" stop-opacity="0"/>
<stop offset="1" stop-color="#181818" stop-opacity="0.3"/>
</linearGradient>
<linearGradient id="paint27_linear_458_371" x1="487.845" y1="961" x2="528.845" y2="961" gradientUnits="userSpaceOnUse">
<stop offset="0.708333" stop-color="#181818" stop-opacity="0"/>
<stop offset="1" stop-color="#181818" stop-opacity="0.3"/>
</linearGradient>
</defs>
</svg>
