<svg width="1920" height="590" viewBox="0 0 1920 590" fill="none" xmlns="http://www.w3.org/2000/svg">
<path d="M1502 365H565.024C549.725 365 534.477 366.755 519.578 370.232L-418 589" stroke="url(#paint0_linear_1542_5516)" stroke-width="2"/>
<path d="M1502 345H558.859C547.639 345 536.44 345.944 525.379 347.822L-418 508" stroke="url(#paint1_linear_1542_5516)" stroke-width="2"/>
<path d="M1502 225H565.024C549.725 225 534.477 223.245 519.578 219.768L-418 1" stroke="url(#paint2_linear_1542_5516)" stroke-width="2"/>
<path d="M1502 325H542L-418 427" stroke="url(#paint3_linear_1542_5516)" stroke-width="2"/>
<path d="M1502 245H558.859C547.639 245 536.44 244.056 525.379 242.178L-418 82" stroke="url(#paint4_linear_1542_5516)" stroke-width="2"/>
<path d="M1502 305H542L-418 346" stroke="url(#paint5_linear_1542_5516)" stroke-width="2"/>
<path d="M1502 265H542L-418 163" stroke="url(#paint6_linear_1542_5516)" stroke-width="2"/>
<path d="M1502 285H542L-418 244" stroke="url(#paint7_linear_1542_5516)" stroke-width="2"/>
<path d="M418 365H1354.98C1370.27 365 1385.52 366.755 1400.42 370.232L2338 589" stroke="url(#paint8_linear_1542_5516)" stroke-width="2"/>
<path d="M418 345H1361.14C1372.36 345 1383.56 345.944 1394.62 347.822L2338 508" stroke="url(#paint9_linear_1542_5516)" stroke-width="2"/>
<path d="M418 225H1354.98C1370.27 225 1385.52 223.245 1400.42 219.768L2338 1" stroke="url(#paint10_linear_1542_5516)" stroke-width="2"/>
<path d="M418 325H1378L2338 427" stroke="url(#paint11_linear_1542_5516)" stroke-width="2"/>
<path d="M418 245H1361.14C1372.36 245 1383.56 244.056 1394.62 242.178L2338 82" stroke="url(#paint12_linear_1542_5516)" stroke-width="2"/>
<path d="M418 305H1378L2338 346" stroke="url(#paint13_linear_1542_5516)" stroke-width="2"/>
<path d="M418 265H1378L2338 163" stroke="url(#paint14_linear_1542_5516)" stroke-width="2"/>
<path d="M418 285H1378L2338 244" stroke="url(#paint15_linear_1542_5516)" stroke-width="2"/>
<defs>
<linearGradient id="paint0_linear_1542_5516" x1="542" y1="589" x2="542" y2="365" gradientUnits="userSpaceOnUse">
<stop offset="0.369792" stop-color="#181818" stop-opacity="0"/>
<stop offset="1" stop-color="#181818" stop-opacity="0.3"/>
</linearGradient>
<linearGradient id="paint1_linear_1542_5516" x1="542" y1="508" x2="542" y2="345" gradientUnits="userSpaceOnUse">
<stop offset="0.369792" stop-color="#181818" stop-opacity="0"/>
<stop offset="1" stop-color="#181818" stop-opacity="0.3"/>
</linearGradient>
<linearGradient id="paint2_linear_1542_5516" x1="542" y1="1" x2="542" y2="225" gradientUnits="userSpaceOnUse">
<stop offset="0.369792" stop-color="#181818" stop-opacity="0"/>
<stop offset="1" stop-color="#181818" stop-opacity="0.3"/>
</linearGradient>
<linearGradient id="paint3_linear_1542_5516" x1="542" y1="427" x2="542" y2="325" gradientUnits="userSpaceOnUse">
<stop offset="0.369792" stop-color="#181818" stop-opacity="0"/>
<stop offset="1" stop-color="#181818" stop-opacity="0.3"/>
</linearGradient>
<linearGradient id="paint4_linear_1542_5516" x1="542" y1="82" x2="542" y2="245" gradientUnits="userSpaceOnUse">
<stop offset="0.369792" stop-color="#181818" stop-opacity="0"/>
<stop offset="1" stop-color="#181818" stop-opacity="0.3"/>
</linearGradient>
<linearGradient id="paint5_linear_1542_5516" x1="542" y1="346" x2="542" y2="305" gradientUnits="userSpaceOnUse">
<stop offset="0.369792" stop-color="#181818" stop-opacity="0"/>
<stop offset="1" stop-color="#181818" stop-opacity="0.3"/>
</linearGradient>
<linearGradient id="paint6_linear_1542_5516" x1="542" y1="163" x2="542" y2="265" gradientUnits="userSpaceOnUse">
<stop offset="0.369792" stop-color="#181818" stop-opacity="0"/>
<stop offset="1" stop-color="#181818" stop-opacity="0.3"/>
</linearGradient>
<linearGradient id="paint7_linear_1542_5516" x1="542" y1="244" x2="542" y2="285" gradientUnits="userSpaceOnUse">
<stop offset="0.369792" stop-color="#181818" stop-opacity="0"/>
<stop offset="1" stop-color="#181818" stop-opacity="0.3"/>
</linearGradient>
<linearGradient id="paint8_linear_1542_5516" x1="1378" y1="589" x2="1378" y2="365" gradientUnits="userSpaceOnUse">
<stop offset="0.369792" stop-color="#181818" stop-opacity="0"/>
<stop offset="1" stop-color="#181818" stop-opacity="0.3"/>
</linearGradient>
<linearGradient id="paint9_linear_1542_5516" x1="1378" y1="508" x2="1378" y2="345" gradientUnits="userSpaceOnUse">
<stop offset="0.369792" stop-color="#181818" stop-opacity="0"/>
<stop offset="1" stop-color="#181818" stop-opacity="0.3"/>
</linearGradient>
<linearGradient id="paint10_linear_1542_5516" x1="1378" y1="1" x2="1378" y2="225" gradientUnits="userSpaceOnUse">
<stop offset="0.369792" stop-color="#181818" stop-opacity="0"/>
<stop offset="1" stop-color="#181818" stop-opacity="0.3"/>
</linearGradient>
<linearGradient id="paint11_linear_1542_5516" x1="1378" y1="427" x2="1378" y2="325" gradientUnits="userSpaceOnUse">
<stop offset="0.369792" stop-color="#181818" stop-opacity="0"/>
<stop offset="1" stop-color="#181818" stop-opacity="0.3"/>
</linearGradient>
<linearGradient id="paint12_linear_1542_5516" x1="1378" y1="82" x2="1378" y2="245" gradientUnits="userSpaceOnUse">
<stop offset="0.369792" stop-color="#181818" stop-opacity="0"/>
<stop offset="1" stop-color="#181818" stop-opacity="0.3"/>
</linearGradient>
<linearGradient id="paint13_linear_1542_5516" x1="1378" y1="346" x2="1378" y2="305" gradientUnits="userSpaceOnUse">
<stop offset="0.369792" stop-color="#181818" stop-opacity="0"/>
<stop offset="1" stop-color="#181818" stop-opacity="0.3"/>
</linearGradient>
<linearGradient id="paint14_linear_1542_5516" x1="1378" y1="163" x2="1378" y2="265" gradientUnits="userSpaceOnUse">
<stop offset="0.369792" stop-color="#181818" stop-opacity="0"/>
<stop offset="1" stop-color="#181818" stop-opacity="0.3"/>
</linearGradient>
<linearGradient id="paint15_linear_1542_5516" x1="1378" y1="244" x2="1378" y2="285" gradientUnits="userSpaceOnUse">
<stop offset="0.369792" stop-color="#181818" stop-opacity="0"/>
<stop offset="1" stop-color="#181818" stop-opacity="0.3"/>
</linearGradient>
</defs>
</svg>
