<svg viewBox="0 0 109 131" fill="none" xmlns="http://www.w3.org/2000/svg">
<mask id="mask0_2435_3914" style="mask-type:alpha" maskUnits="userSpaceOnUse" x="0" y="51" width="104" height="74">
<path d="M2.8909 99.8929L34.985 122.997C38.2817 125.37 42.7154 125.376 46.0179 123.011L101.031 83.6129C103.718 81.6884 103.677 77.6635 100.951 75.795L68.2941 53.4135C65.0257 51.1735 60.7168 51.2064 57.4826 53.496L2.92141 92.123C0.252664 94.0124 0.237082 97.9824 2.8909 99.8929Z" fill="black"/>
</mask>
<g mask="url(#mask0_2435_3914)">
<path d="M2.8909 99.8929L34.985 122.997C38.2817 125.37 42.7154 125.376 46.0179 123.011L101.031 83.6129C103.718 81.6884 103.677 77.6635 100.951 75.795L68.2941 53.4135C65.0257 51.1735 60.7168 51.2064 57.4826 53.496L2.92141 92.123C0.252664 94.0124 0.237082 97.9824 2.8909 99.8929Z" fill="black"/>
<mask id="mask1_2435_3914" style="mask-type:alpha" maskUnits="userSpaceOnUse" x="11" y="82" width="28" height="22">
<path d="M11.5431 96.841L20.3437 103.485C21.2477 104.168 22.4635 104.169 23.3691 103.489L38.4543 92.1593C39.1912 91.6058 39.1798 90.4484 38.4323 89.9111L29.4774 83.4747C28.5812 82.8306 27.3997 82.84 26.5128 83.4985L11.5515 94.6066C10.8197 95.1499 10.8154 96.2916 11.5431 96.841Z" fill="black"/>
</mask>
<g mask="url(#mask1_2435_3914)">
<path d="M35.1849 84.9226L12.4004 101.197" stroke="white" stroke-width="5"/>
</g>
<path d="M322.567 -93.4453L-258.641 321.703" stroke="white" stroke-width="5"/>
</g>
<path fill-rule="evenodd" clip-rule="evenodd" d="M35.7208 123.663L2.78465 99.8947C1.77236 99.1641 1.14783 98.1337 0.910156 97.033C0.915434 105.315 0.955996 104.511 3.44401 106.172L34.9329 129.012C38.2351 131.395 42.6761 131.4 45.9841 129.026L100.571 89.7505C103.571 87.3404 102.972 88.2184 102.972 80.6758C102.735 81.7808 102.107 82.8156 101.088 83.5477L45.1932 123.675C42.413 125.429 38.4019 125.429 35.7208 123.663Z" fill="white"/>
<mask id="mask2_2435_3914" style="mask-type:alpha" maskUnits="userSpaceOnUse" x="6" y="0" width="103" height="74">
<path d="M8.3909 48.1936L40.485 71.2977C43.7817 73.671 48.2154 73.6765 51.5179 71.3113L106.531 31.9137C109.218 29.9892 109.177 25.9643 106.451 24.0958L73.7941 1.7143C70.5257 -0.525731 66.2168 -0.492855 62.9826 1.79679L8.42141 40.4238C5.75266 42.3131 5.73708 46.2832 8.3909 48.1936Z" fill="black"/>
</mask>
<g mask="url(#mask2_2435_3914)">
<path d="M8.3909 48.1936L40.485 71.2977C43.7817 73.671 48.2154 73.6765 51.5179 71.3113L106.531 31.9137C109.218 29.9892 109.177 25.9643 106.451 24.0958L73.7941 1.7143C70.5257 -0.525731 66.2168 -0.492855 62.9826 1.79679L8.42141 40.4238C5.75266 42.3131 5.73708 46.2832 8.3909 48.1936Z" fill="black"/>
<circle cx="6.43533" cy="6.43533" r="5.33533" transform="matrix(0.866044 -0.499967 0.866044 0.499967 76.7598 29.5918)" stroke="white" stroke-width="2.2"/>
<circle cx="6.43533" cy="6.43533" r="6.43533" transform="matrix(0.866044 -0.499967 0.866044 0.499967 69.3281 33.8809)" fill="white"/>
<path d="M326.967 -169.346L-254.24 245.803" stroke="white" stroke-width="4"/>
</g>
<path fill-rule="evenodd" clip-rule="evenodd" d="M41.2208 71.9638L8.28465 48.1954C7.27236 47.4649 6.64783 46.4345 6.41016 45.3337C6.41543 53.6159 6.456 52.8119 8.94401 54.4723L40.4329 77.3127C43.7351 79.6957 48.1761 79.7012 51.4841 77.3264L106.071 38.0513C109.071 35.6412 108.472 36.5192 108.472 28.9766C108.235 30.0816 107.607 31.1164 106.588 31.8485L50.6932 71.9755C47.913 73.7296 43.9019 73.7296 41.2208 71.9638Z" fill="white"/>
<path fill-rule="evenodd" clip-rule="evenodd" d="M41.2208 72.9638L8.28465 49.1954C7.27236 48.4649 6.64783 47.4345 6.41016 46.3337C6.41543 54.6159 6.456 53.8119 8.94401 55.4723L40.4329 78.3127C43.7351 80.6957 48.1761 80.7012 51.4841 78.3264L106.071 39.0513C109.071 36.6412 108.472 37.5192 108.472 29.9766C108.235 31.0816 107.607 32.1164 106.588 32.8485L50.6932 72.9755C47.913 74.7296 43.9019 74.7296 41.2208 72.9638Z" fill="white"/>
</svg>
