<svg width="375" height="427" viewBox="0 0 375 427" fill="none" xmlns="http://www.w3.org/2000/svg">
<g clip-path="url(#clip0_192_10968)">
<path d="M223.564 74.183C222.443 74.9683 222.071 76.567 222.729 77.6288L223.212 78.4131L221.888 77.9816C220.132 77.4135 219.618 77.5527 218.474 79.0306C217.638 80.07 217.366 80.2717 216.515 80.3115C215.187 80.3965 214.743 80.8644 214.507 82.4336C214.324 83.4472 214.035 83.9678 213.292 84.6432C212.543 85.2913 212.211 85.8785 211.895 87.2071C211.542 88.6297 211.36 88.9839 210.812 89.1017C209.908 89.296 209.365 90.5015 209.337 92.37C209.31 93.178 209.246 94.08 209.157 94.3285C209.094 94.5711 208.005 95.6362 206.746 96.7091L204.433 98.6104L202.317 97.4321C200.528 96.4415 199.916 96.258 198.278 96.2376C196.118 96.1862 195.283 96.5663 194.548 97.8131C194.339 98.1732 193.978 98.6234 193.761 98.8134C193.348 99.1599 187.316 101.889 186.604 102.042C186.412 102.084 185.501 101.707 184.559 101.193C183.618 100.679 182.375 100.23 181.798 100.211C181.072 100.166 180.585 99.8984 180.015 99.2473C179.328 98.4495 178.891 98.2855 176.093 97.7983C173.125 97.319 168.608 97.2302 166.779 97.6521C165.799 97.8914 165.481 97.6158 165.175 96.1917C165.04 95.5618 164.767 94.9614 164.535 94.8109C164.302 94.6604 163.423 94.706 162.547 94.8944C159.397 95.5716 155.564 97.5991 152.983 99.9877C151.091 101.713 151.069 101.746 149.138 101.96C147.466 102.177 147.108 102.111 146.38 101.522C145.007 100.471 143.618 100.139 141.687 100.353C140.705 100.45 139.666 100.415 139.373 100.249C139.079 100.083 138.606 100.013 138.332 100.072C131.657 101.679 130.957 101.887 130.23 102.502C129.139 103.424 128.991 104.201 129.534 106.061L129.991 107.653L129.095 108.419C127.803 109.47 127.319 109.488 126.208 108.581C125.44 107.944 125.043 107.829 124.304 107.988C123.783 108.099 123.314 108.315 123.267 108.497C123.214 108.652 123.052 108.83 122.888 108.865C122.559 108.936 121.87 105.732 122.179 105.436C123.035 104.621 119.917 99.4468 118.469 99.2424C117.374 99.0769 116.49 99.8972 115.427 102.017C114.237 104.479 113.807 104.743 109.122 106.008L105.734 106.909L104.757 108.494L103.78 110.079L99.8645 109.059C96.6163 108.21 95.4658 108.056 93.1044 108.134C91.2537 108.188 89.4654 108 87.988 107.658C85.3914 107.042 85.2486 107.044 83.9228 108.074C82.6948 109.026 81.797 109.247 80.216 108.957C79.0596 108.776 78.8679 108.817 77.2642 109.62L75.5901 110.496L74.6955 109.8C73.7226 109.006 71.762 108.683 70.201 109.018C69.6259 109.142 68.4036 109.72 67.4727 110.321C65.4096 111.653 65.4096 111.653 64.8436 110.887C64.2718 110.093 63.139 110.021 62.6328 110.732C62.4119 111.037 61.9257 112.374 61.549 113.687C60.8386 116.246 60.4322 117.021 59.9018 116.82C59.5046 116.705 57.1873 118.32 56.861 118.935C56.7164 119.195 56.1219 119.495 55.355 119.66C52.9998 120.166 52.2451 120.787 50.2555 123.793C49.1258 125.469 48.2188 126.581 47.9332 126.585C47.7023 126.577 46.3015 126.592 44.8518 126.646C40.9194 126.746 39.8125 127.328 37.4689 130.554C35.1958 133.707 35.2231 133.701 34.7251 134.983C34.5084 135.574 33.7442 136.684 33.0462 137.436C32.0179 138.516 31.3647 138.943 30.0092 139.435C29.0469 139.757 28.0533 140.2 27.8148 140.423C27.1363 140.998 25.8818 143.159 25.3428 144.65C25.0948 145.363 24.6239 146.237 24.272 146.6C22.7784 148.182 22.7315 148.363 23.3451 150.151C24.2175 152.743 24.463 154.151 24.2389 155.374L24.0244 156.509L23.048 156.232C22.4081 156.054 21.788 156.102 21.1269 156.359C18.3906 157.491 18.2478 157.493 17.2419 157.079C16.1694 156.622 15.344 156.914 15.3016 157.783C15.2783 158.074 15.5939 159.009 16.0014 159.839C16.4834 160.881 17.1326 163.234 18.0099 167.315C19.0933 172.354 19.2879 173.659 19.2601 175.928C19.2313 179.659 20.1337 183.19 21.6004 185.081C22.1878 185.814 22.9713 187.193 23.3476 188.143C23.7239 189.094 24.4841 190.764 25.0386 191.877C25.5871 192.962 26.6612 195.826 27.4043 198.216C28.6865 202.181 28.8573 202.975 29.5947 208.404C30.0038 211.639 30.4583 215.352 30.5981 216.669C31.1184 222.288 30.3357 227.842 28.2306 233.51C27.0296 236.719 26.8169 237.596 27.0112 238.499C27.3801 240.082 28.1846 240.625 29.7026 240.356C31.7742 239.997 31.872 239.918 32.2057 238.672C32.3774 238.005 32.9104 236.486 33.3772 235.326C34.2092 233.198 34.4858 231.42 34.5458 227.568C34.5509 226.392 34.6964 224.67 34.8758 223.772C35.1058 222.576 35.0897 221.835 34.8094 221.064C34.5918 220.452 34.4814 219.272 34.5492 218.255C34.6014 217.298 34.4413 214.955 34.1446 213.041C33.6059 209.203 33.3872 206.987 33.4709 206.31C33.5059 206.073 34.0445 206.845 34.6498 208.062C35.2826 209.272 36.2131 210.935 36.736 211.768C37.5684 213.107 37.8154 213.857 38.9262 218.89C40.1468 224.3 40.1783 224.58 39.9944 227.456C39.7698 230.943 40.0186 231.434 41.7183 230.81C42.6748 230.461 42.7081 230.483 43.0903 231.461C43.592 232.728 44.3181 233.174 44.9574 232.549C45.9546 231.59 46.5894 232.943 45.8743 234.415C45.5383 235.118 45.5445 235.546 45.8504 236.569C46.3621 238.15 47.5996 239.775 48.2805 239.743C48.5661 239.739 49.5712 238.95 50.4744 237.953C51.4108 236.978 52.2769 236.076 52.4451 235.925C52.7814 235.623 55.248 237.901 56.1588 239.338C56.9853 240.651 58.6569 241.896 60.6178 242.62L62.2694 243.239L65.9118 242.456L69.5815 241.667L70.9145 242.67C71.6642 243.225 72.5882 244.058 73.0072 244.541C74.5834 246.408 77.6679 248.094 78.9824 247.812C79.2837 247.747 79.8962 247.93 80.3561 248.204C82.3956 249.427 87.3694 250.306 89.5603 249.835C90.601 249.612 90.8728 249.41 91.4904 248.418L92.188 247.265L92.7283 247.779C93.0455 248.055 93.3549 248.561 93.4197 248.862C93.9025 251.108 98.6959 251.281 101.555 249.119C102.81 248.161 103.051 248.081 108.637 246.88L114.443 245.632L116.433 246.092C118.963 246.665 120.54 246.269 122.268 244.579C124.122 242.806 124.39 242.719 124.829 243.828C125.05 244.325 125.945 245.422 126.814 246.267C127.711 247.105 128.453 247.891 128.482 248.028C128.63 248.713 130.232 249.371 131.5 249.271C133.64 249.097 133.856 249.165 134.551 250.133C134.888 250.634 135.451 251.258 135.817 251.494C136.156 251.736 136.677 252.427 136.977 253.021C137.525 254.107 138.512 254.697 138.989 254.25C139.135 254.133 139.568 254.412 140.008 254.862C140.684 255.605 141.148 255.763 141.848 255.555C141.93 255.538 142.582 256.572 143.288 257.853C143.999 259.162 144.884 260.748 145.256 261.413C146.214 263.069 146.164 264.57 145.095 266.261C144.607 267.053 144.044 267.633 143.66 267.715C143.304 267.792 142.807 268.013 142.569 268.237C142.058 268.661 141.342 270.792 141.167 272.377C141.099 272.994 140.855 273.992 140.617 274.616C140.07 275.937 140.105 276.101 141.373 278.665L142.374 280.656L141.887 281.592C141.62 282.079 141.305 283.149 141.185 283.92C141.091 284.685 140.716 285.74 140.366 286.245C139.63 287.349 139.749 288.04 140.816 288.87L141.633 289.468L141.162 290.744C140.506 292.49 140.793 294.491 141.925 296.024C142.379 296.672 142.847 297.516 142.924 297.872C143.118 298.776 144.109 300.053 145.095 300.643C145.622 300.96 146.558 302.248 147.735 304.259C150.201 308.399 150.35 308.424 152.707 304.995C153.621 303.652 154.417 302.421 154.421 302.306C154.518 301.826 155.223 301.904 155.505 302.416C155.883 303.109 156.81 303.425 158.929 303.686C160.784 303.917 161.902 304.451 162.791 305.52C163.098 305.884 163.951 306.388 164.664 306.636C165.382 306.911 166.006 307.15 166.067 307.165C166.133 307.208 166.057 307.654 165.911 308.173C165.583 309.447 165.951 309.826 168.343 310.687C170.264 311.363 170.352 311.373 172.553 310.814C175.246 310.148 176.332 310.402 178.092 312.058C179.457 313.34 179.854 313.456 182.256 313.168L184.215 312.948L185.329 314.399C186.841 316.366 187.539 316.817 188.451 316.392C189.051 316.12 189.415 316.214 190.873 317.132C192.564 318.201 193.667 319.597 195.945 323.663C196.56 324.792 197.167 325.75 198.789 328.094C199.333 328.894 199.086 331.211 198.316 332.293C197.445 333.569 197.441 334.086 198.264 335.915C199.179 338.039 199.766 338.371 203.304 338.699C204.74 338.849 205.924 339.024 205.969 339.1C206.702 341.178 207.297 341.279 210.13 339.667C210.997 339.165 211.93 338.707 212.149 338.66C212.395 338.607 213.268 338.935 214.104 339.357C215.975 340.33 216.509 340.416 217.44 339.814C218.773 338.955 219.639 337.651 219.705 336.491C219.776 334.957 220.171 334.528 221.664 334.408C222.482 334.347 223.018 334.174 223.369 333.812C223.835 333.311 223.895 333.326 224.865 334.637C226.12 336.344 226.948 336.595 228.6 335.753C229.216 335.42 230.556 334.989 231.515 334.783C233.404 334.376 234.734 333.632 235.205 332.757C235.365 332.436 235.872 332.127 236.42 332.009C237.652 331.744 238.178 331.258 238.746 329.904L239.197 328.804L240.022 329.573C241.637 331.088 243.88 332.726 244.669 332.929C246.516 333.391 250.761 333.281 252.962 332.722C255.479 332.037 255.669 331.853 257.749 327.538C258.967 325.07 261.027 321.991 262.124 321.096C262.753 320.56 264.807 319.316 264.934 319.374C264.973 319.423 264.983 320.137 264.941 321.006C264.777 324.508 265.846 325.883 267.616 324.385C267.909 324.15 268.996 322.942 270.05 321.713C271.109 320.511 272.225 319.44 272.554 319.369C274.225 319.01 275.038 318.262 275.792 316.438C276.185 315.466 276.538 314.444 276.573 314.207C276.653 313.646 275.87 312.668 274.956 312.148C274.562 311.918 273.896 311.087 273.473 310.318C272.558 308.595 271.856 307.858 271.096 307.792C270.277 307.71 270.308 307.188 271.195 306.252C271.639 305.784 272.051 305.037 272.094 304.569C272.17 304.123 272.438 303.636 272.694 303.495C275.414 302.021 277.006 301.163 277.229 301.001C277.403 300.878 277.757 301.059 278.004 301.407C278.811 302.495 280.132 302.64 282.731 301.938C284.789 301.381 285.253 301.138 286.762 299.897C287.707 299.092 288.942 297.91 289.542 297.236C290.997 295.605 292.937 291.836 293.663 289.216C294.254 287.169 294.276 287.136 295.209 287.078C296.598 287.009 299.248 285.608 300.411 284.355C301.125 283.543 301.708 283.188 302.606 282.967C303.4 282.796 304.037 282.43 304.497 281.901C304.892 281.472 305.243 281.11 305.298 281.098C305.38 281.081 305.572 281.441 305.788 281.91C306.003 282.379 306.689 283.034 307.481 283.523C308.462 284.086 308.987 284.661 309.523 285.691C310.519 287.655 310.552 288.077 309.747 288.996C308.828 290.053 307.945 292.477 308.145 293.408C308.346 294.34 309.575 294.992 311.019 294.911C312.183 294.861 312.905 295.021 314.509 295.822C316.568 296.869 318.242 295.994 319.336 293.352C319.979 291.81 320.552 291.543 322.628 291.871C323.784 292.052 323.921 292.022 324.49 291.47C325.313 290.634 325.242 289.904 324.147 287.074C323.302 284.878 323.225 284.522 323.513 284.259C324.066 283.768 323.658 282.538 322.67 281.805C322.186 281.421 321.529 280.761 321.204 280.315C320.861 279.787 320.328 279.443 319.773 279.39C318.886 279.266 318.44 278.789 317.478 276.847C316.822 275.527 315.761 275.124 313.954 275.513C312.393 275.848 308.555 274.926 309.025 274.309C309.181 274.104 309.544 272.994 309.819 271.875C310.067 270.761 310.502 269.321 310.768 268.691C311.197 267.624 311.193 267.339 310.717 265.923C310.247 264.534 310.219 264.139 310.59 262.798C310.808 261.949 310.991 260.133 311.009 258.754C311.046 254.792 311.126 254.632 314.225 251.587C314.94 250.918 315.288 250.27 315.428 249.323C315.619 248.079 315.557 247.92 313.909 244.12C312.515 240.838 312.015 239.312 310.883 234.713C310.014 231.204 309.58 228.919 309.666 228.385C309.715 227.945 310.162 226.961 310.596 226.18C311.337 224.96 311.403 224.602 311.161 223.479C310.82 221.891 311.16 221.073 312.669 219.832C313.886 218.825 314.436 217.389 314.13 215.965C313.948 215.116 313.991 215.049 316.062 213.888C317.206 213.212 318.348 212.393 318.59 212.055C319.026 211.417 319.081 211.405 320.926 211.724C323.338 212.151 324.207 211.793 325.34 210.002C325.786 209.275 327.219 207.678 328.525 206.423C331.663 203.428 332.339 202.308 332.84 199.307C333.068 197.968 333.392 196.409 333.587 195.851C334.104 194.393 333.769 193.233 332.547 192.35L331.526 191.595L332.973 190.195C334.517 188.717 334.867 188.613 337.601 188.799C338.909 188.89 339.068 188.828 340.061 187.984L341.131 187.095L341.994 187.511C342.99 188.013 343.763 187.875 345.699 186.886C346.473 186.49 347.774 186.01 348.568 185.839C349.746 185.586 350.46 185.175 352.513 183.53C353.882 182.434 355.459 180.977 355.971 180.294C356.857 179.215 356.925 179 356.624 178.262C356.345 177.635 356.384 177.282 356.718 176.838C356.967 176.527 357.095 175.926 357.007 175.515C356.607 173.653 356.902 172.759 358.356 171.529C360.153 170.025 360.974 168.245 360.63 166.513C360.316 164.919 359.331 164.071 357.459 163.757C355.984 163.558 352.01 163.868 348.481 164.512C347.38 164.72 346.04 164.751 345.351 164.612C344.453 164.433 343.778 164.492 342.548 164.9C341.311 165.28 340.664 165.334 339.738 165.16L338.537 164.903L339.247 164.206C342.721 160.909 343.251 159.907 342.383 158.403C341.443 156.828 341.229 155.7 341.521 154.261C341.886 152.493 341.733 151.781 340.793 150.607C340.401 150.119 339.813 148.984 339.504 148.077L338.953 146.447L339.766 146.1C340.236 145.885 341.214 145.102 341.96 144.311C343.249 142.974 343.339 142.725 343.648 140.567C344.088 137.55 343.354 133.868 342.001 132.24C341.537 131.68 341.216 131.119 341.268 130.964C341.442 130.44 340.53 129.662 339.571 129.467C339.037 129.381 337.45 129.464 336.058 129.649C333.859 129.95 333.282 129.931 332.088 129.443C330.497 128.839 328.008 128.859 327.144 129.503C326.823 129.744 326.534 129.863 326.467 129.82C323.803 127.155 323.041 126.546 322.409 126.538C320.805 126.539 319.965 126.233 318.206 124.978C316.019 123.471 315.595 122.961 314.396 120.582C313.604 119.033 313.23 118.627 311.343 117.313C310.167 116.506 308.505 115.574 307.666 115.267C305.732 114.537 303.965 113.112 302.441 111.09C301.192 109.41 300.599 109.051 298.701 108.886C298.057 108.824 296.856 108.566 296.001 108.32C295.173 108.068 293.762 107.77 292.887 107.7C291.336 107.547 291.297 107.498 289.897 105.65C288.686 104.019 288.23 103.63 286.477 102.804C285.359 102.27 283.555 101.741 282.493 101.597C279.597 101.189 279.503 101.151 279.083 99.8663C278.401 97.8927 277.118 95.7904 276.473 95.5855C276.048 95.4762 275.61 95.5704 274.951 95.97C274.389 96.2912 273.333 96.5756 272.22 96.729C270.712 96.91 270.205 96.8184 269.379 96.3083C267.439 95.1495 266.346 95.1267 265.39 96.2778C264.639 97.1841 262.667 97.6081 260.597 97.3082C258.582 96.9965 257.821 97.1888 256.245 98.3872L254.962 99.3506L254.015 98.4083C253.502 97.8882 253.004 97.3075 252.875 97.1061C252.454 96.4803 250.703 96.1978 249.758 96.6015C247.302 97.7027 246.112 97.9011 244.431 97.5462C243.015 97.2204 242.721 97.0543 242.274 96.1762C241.986 95.6364 241.702 94.9812 241.643 94.7073C241.585 94.4335 241.169 93.434 240.705 92.4737C239.902 90.87 239.645 90.61 237.232 88.98C234.02 86.834 233.152 85.7312 232.566 83.1354C231.959 80.3146 231.334 79.2742 230.111 79.05C229.55 78.9702 229.025 78.7965 228.947 78.6987C228.835 78.5794 228.764 77.8497 228.764 77.0476C228.739 75.3338 228.296 74.3402 227.232 73.6522C226.3 73.0503 224.825 73.2528 223.564 74.183Z" fill="#BDBDBD"/>
<path fill-rule="evenodd" clip-rule="evenodd" d="M270.138 219.59C264.199 219.738 259.505 224.672 259.653 230.611C259.716 233.143 260.649 235.449 262.159 237.249C262.854 238.214 263.861 239.525 265.297 241.23C268.994 245.621 270.92 250.953 270.92 250.953C270.92 250.953 272.579 245.532 276.051 240.962C277.402 239.185 278.344 237.824 278.991 236.825C280.407 234.952 281.223 232.605 281.16 230.075C281.011 224.136 276.077 219.442 270.138 219.59Z" fill="#FF4E02"/>
<rect x="264.896" y="225.1" width="10.7571" height="10.7571" rx="5.37857" transform="rotate(-1.42918 264.896 225.1)" fill="#BDBDBD"/>
</g>
<defs>
<clipPath id="clip0_192_10968">
<rect width="358.552" height="358.552" fill="white" transform="translate(-16.8016 75.4814) rotate(-12.1339)"/>
</clipPath>
</defs>
</svg>
