<svg width="40" height="40" viewBox="0 0 40 40" fill="none" xmlns="http://www.w3.org/2000/svg">
<path d="M14.5834 30.8333H18.75" stroke="#FF4E02" stroke-width="2" stroke-linecap="round" stroke-linejoin="round"/>
<path d="M25 21.6283V31.6667C25 33.5083 23.5084 35 21.6667 35H11.6667C9.82504 35 8.33337 33.5083 8.33337 31.6667V11.6667C8.33337 9.82501 9.82504 8.33334 11.6667 8.33334H17.6667" stroke="#FF4E02" stroke-width="2" stroke-linecap="round" stroke-linejoin="round"/>
<path d="M32.3152 6.01819C35.895 9.59799 35.895 15.402 32.3152 18.9818C28.7354 22.5616 22.9314 22.5616 19.3516 18.9818C15.7718 15.402 15.7718 9.59799 19.3516 6.01819C22.9314 2.43839 28.7354 2.43839 32.3152 6.01819" stroke="#FF4E02" stroke-width="2" stroke-linecap="round" stroke-linejoin="round"/>
<path d="M25.8333 17.3583C25.7833 17.3583 25.7417 17.4 25.7417 17.45C25.7417 17.5 25.7833 17.5417 25.8333 17.5417C25.8833 17.5417 25.925 17.5 25.925 17.45C25.925 17.4 25.8833 17.3583 25.8333 17.3583V17.3583" stroke="#FF4E02" stroke-width="2" stroke-linecap="round" stroke-linejoin="round"/>
<path d="M25.8333 13.6467C27.415 13.6467 28.6983 12.3634 28.6983 10.7817C28.6983 9.20002 27.4166 7.91669 25.8333 7.91669C24.29 7.91669 23.0416 9.13835 22.98 10.6667" stroke="#FF4E02" stroke-width="2" stroke-linecap="round" stroke-linejoin="round"/>
</svg>
