<svg width="40" height="40" viewBox="0 0 40 40" fill="none" xmlns="http://www.w3.org/2000/svg">
<path d="M9.94837 11.0417L8.8367 6.04169H5.6217" stroke="#FF4E02" stroke-width="2" stroke-linecap="round" stroke-linejoin="round"/>
<path fill-rule="evenodd" clip-rule="evenodd" d="M12.885 24.725L9.94836 11.0417H31.045C32.1067 11.0417 32.8967 12.02 32.675 13.0584L30.1717 24.725C30.0067 25.4934 29.3284 26.0417 28.5417 26.0417H14.5134C13.7284 26.0417 13.05 25.4934 12.885 24.725Z" stroke="#FF4E02" stroke-width="2" stroke-linecap="round" stroke-linejoin="round"/>
<path d="M29.1083 32.0833C28.7633 32.0833 28.4833 32.3633 28.4867 32.7083C28.4867 33.0533 28.7667 33.3333 29.1117 33.3333C29.4567 33.3333 29.7367 33.0533 29.7367 32.7083C29.735 32.3633 29.455 32.0833 29.1083 32.0833" stroke="#FF4E02" stroke-width="2" stroke-linecap="round" stroke-linejoin="round"/>
<path d="M14.76 32.0833C14.415 32.0833 14.135 32.3633 14.1384 32.7083C14.1367 33.0533 14.4167 33.3333 14.7617 33.3333C15.1067 33.3333 15.3867 33.0533 15.3867 32.7083C15.3867 32.3633 15.1067 32.0833 14.76 32.0833" stroke="#FF4E02" stroke-width="2" stroke-linecap="round" stroke-linejoin="round"/>
</svg>
