<svg width="2647" height="3098" viewBox="0 0 2647 3098" fill="none" xmlns="http://www.w3.org/2000/svg">
<path d="M1453.5 1946.5V2095.86C1453.5 2122.68 1458.9 2149.23 1469.37 2173.92L1860.5 3096.5" stroke="url(#paint0_linear_207_1210)" stroke-width="2"/>
<path d="M1473.5 1946.5V2088.67C1473.5 2120.11 1480.91 2151.11 1495.14 2179.15L1960.5 3096.5" stroke="url(#paint1_linear_207_1210)" stroke-width="2"/>
<path d="M1174.5 1946.5V2088.67C1174.5 2120.11 1167.09 2151.11 1152.86 2179.15L687.5 3096.5" stroke="url(#paint2_linear_207_1210)" stroke-width="2"/>
<path d="M1493.5 1946.5V2081.02C1493.5 2117.32 1503.38 2152.94 1522.08 2184.05L2070.5 3096.5" stroke="url(#paint3_linear_207_1210)" stroke-width="2"/>
<path d="M1154.5 1946.5V2081.02C1154.5 2117.32 1144.62 2152.94 1125.92 2184.05L577.5 3096.5" stroke="url(#paint4_linear_207_1210)" stroke-width="2"/>
<path d="M1513.5 1946.5V2072.31C1513.5 2114.05 1526.56 2154.75 1550.86 2188.7L2200.5 3096.5" stroke="url(#paint5_linear_207_1210)" stroke-width="2"/>
<path d="M1134.5 1946.5V2072.31C1134.5 2114.05 1121.44 2154.75 1097.14 2188.7L447.5 3096.5" stroke="url(#paint6_linear_207_1210)" stroke-width="2"/>
<path d="M1533.5 1946.5V2061.56C1533.5 2109.88 1551 2156.57 1582.75 2192.99L2370.5 3096.5" stroke="url(#paint7_linear_207_1210)" stroke-width="2"/>
<path d="M1114.5 1946.5V2061.56C1114.5 2109.88 1097.01 2156.57 1065.25 2192.99L277.5 3096.5" stroke="url(#paint8_linear_207_1210)" stroke-width="2"/>
<path d="M1553.5 1946.5V2049.68C1553.5 2105.06 1576.47 2157.97 1616.92 2195.79L2580.5 3096.5" stroke="url(#paint9_linear_207_1210)" stroke-width="2"/>
<path d="M1094.5 1946.5V2049.68C1094.5 2105.06 1071.54 2157.97 1031.08 2195.79L67.5005 3096.5" stroke="url(#paint10_linear_207_1210)" stroke-width="2"/>
<path d="M1433.5 1946.5V2101.56C1433.5 2124.68 1437.51 2147.62 1445.35 2169.37L1779.5 3096.5" stroke="url(#paint11_linear_207_1210)" stroke-width="2"/>
<path d="M1193.5 1946.5V2095.86C1193.5 2122.68 1188.11 2149.23 1177.64 2173.92L786.5 3096.5" stroke="url(#paint12_linear_207_1210)" stroke-width="2"/>
<path d="M1413.5 1946.5V2107.44C1413.5 2126.71 1416.29 2145.88 1421.77 2164.36L1698.5 3096.5" stroke="url(#paint13_linear_207_1210)" stroke-width="2"/>
<path d="M1213.5 1946.5V2101.56C1213.5 2124.68 1209.49 2147.62 1201.65 2169.37L867.5 3096.5" stroke="url(#paint14_linear_207_1210)" stroke-width="2"/>
<path d="M1393.5 1946.5V2113.48C1393.5 2128.77 1395.26 2144.02 1398.73 2158.92L1617.5 3096.5" stroke="url(#paint15_linear_207_1210)" stroke-width="2"/>
<path d="M1233.5 1946.5V2107.44C1233.5 2126.71 1230.71 2145.88 1225.23 2164.36L948.5 3096.5" stroke="url(#paint16_linear_207_1210)" stroke-width="2"/>
<path d="M1373.5 1946.5V2119.64C1373.5 2130.86 1374.44 2142.06 1376.32 2153.12L1536.5 3096.5" stroke="url(#paint17_linear_207_1210)" stroke-width="2"/>
<path d="M1253.5 1946.5V2113.48C1253.5 2128.77 1251.75 2144.02 1248.27 2158.92L1029.5 3096.5" stroke="url(#paint18_linear_207_1210)" stroke-width="2"/>
<path d="M1353.5 1946.5V2136.5L1455.5 3096.5" stroke="url(#paint19_linear_207_1210)" stroke-width="2"/>
<path d="M1273.5 1946.5V2119.64C1273.5 2130.86 1272.56 2142.06 1270.68 2153.12L1110.5 3096.5" stroke="url(#paint20_linear_207_1210)" stroke-width="2"/>
<path d="M1333.5 1946.5V2136.5L1374.5 3096.5" stroke="url(#paint21_linear_207_1210)" stroke-width="2"/>
<path d="M1293.5 1946.5V2136.5L1191.5 3096.5" stroke="url(#paint22_linear_207_1210)" stroke-width="2"/>
<path d="M1313.5 1946.5V2136.5L1272.5 3096.5" stroke="url(#paint23_linear_207_1210)" stroke-width="2"/>
<path d="M1453.5 1946.5V1027.14C1453.5 1000.32 1458.9 973.774 1469.36 949.079L1860.5 26.5" stroke="url(#paint24_linear_207_1210)" stroke-width="2"/>
<path d="M1433.5 1946.5V1021.44C1433.5 998.322 1437.51 975.378 1445.35 953.628L1779.5 26.5" stroke="url(#paint25_linear_207_1210)" stroke-width="2"/>
<path d="M1193.5 1946.5V1027.14C1193.5 1000.32 1188.1 973.774 1177.64 949.079L786.5 26.5" stroke="url(#paint26_linear_207_1210)" stroke-width="2"/>
<path d="M1173.5 1946.5V1034.16C1173.5 1002.83 1166.14 971.928 1152 943.96L675.5 1" stroke="url(#paint27_linear_207_1210)" stroke-width="2"/>
<path d="M1473 1946.5V1034.16C1473 1002.83 1480.36 971.928 1494.5 943.96L1971 1" stroke="url(#paint28_linear_207_1210)" stroke-width="2"/>
<path d="M1153.5 1946.5V1043.55C1153.5 1006.26 1143.07 969.713 1123.4 938.034L561 32.5" stroke="url(#paint29_linear_207_1210)" stroke-width="2"/>
<path d="M1493 1946.5V1043.55C1493 1006.26 1503.43 969.713 1523.1 938.034L2085.5 32.5" stroke="url(#paint30_linear_207_1210)" stroke-width="2"/>
<path d="M1133.5 1946.5V1054.43C1133.5 1010.38 1118.96 967.561 1092.13 932.624L401 32.5" stroke="url(#paint31_linear_207_1210)" stroke-width="2"/>
<path d="M1513 1946.5V1054.43C1513 1010.38 1527.54 967.561 1554.37 932.624L2245.5 32.5" stroke="url(#paint32_linear_207_1210)" stroke-width="2"/>
<path d="M1113.5 1946.5V1066.75C1113.5 1015.25 1093.63 965.727 1058.03 928.507L201 32.5" stroke="url(#paint33_linear_207_1210)" stroke-width="2"/>
<path d="M1533 1946.5V1066.75C1533 1015.25 1552.87 965.727 1588.47 928.507L2445.5 32.5" stroke="url(#paint34_linear_207_1210)" stroke-width="2"/>
<path d="M1093.5 1946.5V1077.37C1093.5 1019.63 1068.54 964.707 1025.05 926.727L1 32.5" stroke="url(#paint35_linear_207_1210)" stroke-width="2"/>
<path d="M1553 1946.5V1077.37C1553 1019.63 1577.96 964.707 1621.45 926.727L2645.5 32.5" stroke="url(#paint36_linear_207_1210)" stroke-width="2"/>
<path d="M1413.5 1946.5V1015.56C1413.5 996.288 1416.29 977.117 1421.77 958.641L1698.5 26.5" stroke="url(#paint37_linear_207_1210)" stroke-width="2"/>
<path d="M1213.5 1946.5V1021.44C1213.5 998.322 1209.49 975.378 1201.65 953.628L867.5 26.5" stroke="url(#paint38_linear_207_1210)" stroke-width="2"/>
<path d="M1393.5 1946.5V1009.52C1393.5 994.225 1395.26 978.977 1398.73 964.078L1617.5 26.5" stroke="url(#paint39_linear_207_1210)" stroke-width="2"/>
<path d="M1233.5 1946.5V1015.56C1233.5 996.288 1230.71 977.117 1225.23 958.641L948.5 26.5" stroke="url(#paint40_linear_207_1210)" stroke-width="2"/>
<path d="M1373.5 1946.5V1003.36C1373.5 992.139 1374.44 980.94 1376.32 969.879L1536.5 26.5" stroke="url(#paint41_linear_207_1210)" stroke-width="2"/>
<path d="M1253.5 1946.5V1009.52C1253.5 994.225 1251.74 978.977 1248.27 964.078L1029.5 26.5" stroke="url(#paint42_linear_207_1210)" stroke-width="2"/>
<path d="M1353.5 1946.5V986.5L1455.5 26.5" stroke="url(#paint43_linear_207_1210)" stroke-width="2"/>
<path d="M1273.5 1946.5V1003.36C1273.5 992.139 1272.56 980.94 1270.68 969.879L1110.5 26.5" stroke="url(#paint44_linear_207_1210)" stroke-width="2"/>
<path d="M1333.5 1946.5V986.5L1374.5 26.5" stroke="url(#paint45_linear_207_1210)" stroke-width="2"/>
<path d="M1293.5 1946.5V986.5L1191.5 26.5" stroke="url(#paint46_linear_207_1210)" stroke-width="2"/>
<path d="M1313.5 1946.5V986.5L1272.5 26.5" stroke="url(#paint47_linear_207_1210)" stroke-width="2"/>
<defs>
<linearGradient id="paint0_linear_207_1210" x1="1860.5" y1="2136.5" x2="1453.5" y2="2136.5" gradientUnits="userSpaceOnUse">
<stop offset="0.369792" stop-color="#181818" stop-opacity="0"/>
<stop offset="1" stop-color="#181818" stop-opacity="0.3"/>
</linearGradient>
<linearGradient id="paint1_linear_207_1210" x1="1880.5" y1="2136.5" x2="1473.5" y2="2136.5" gradientUnits="userSpaceOnUse">
<stop offset="0.369792" stop-color="#181818" stop-opacity="0"/>
<stop offset="1" stop-color="#181818" stop-opacity="0.3"/>
</linearGradient>
<linearGradient id="paint2_linear_207_1210" x1="767.5" y1="2136.5" x2="1174.5" y2="2136.5" gradientUnits="userSpaceOnUse">
<stop offset="0.369792" stop-color="#181818" stop-opacity="0"/>
<stop offset="1" stop-color="#181818" stop-opacity="0.3"/>
</linearGradient>
<linearGradient id="paint3_linear_207_1210" x1="1900.5" y1="2136.5" x2="1493.5" y2="2136.5" gradientUnits="userSpaceOnUse">
<stop offset="0.369792" stop-color="#181818" stop-opacity="0"/>
<stop offset="1" stop-color="#181818" stop-opacity="0.3"/>
</linearGradient>
<linearGradient id="paint4_linear_207_1210" x1="747.501" y1="2136.5" x2="1154.5" y2="2136.5" gradientUnits="userSpaceOnUse">
<stop offset="0.369792" stop-color="#181818" stop-opacity="0"/>
<stop offset="1" stop-color="#181818" stop-opacity="0.3"/>
</linearGradient>
<linearGradient id="paint5_linear_207_1210" x1="1920.5" y1="2136.5" x2="1513.5" y2="2136.5" gradientUnits="userSpaceOnUse">
<stop offset="0.369792" stop-color="#181818" stop-opacity="0"/>
<stop offset="1" stop-color="#181818" stop-opacity="0.3"/>
</linearGradient>
<linearGradient id="paint6_linear_207_1210" x1="727.501" y1="2136.5" x2="1134.5" y2="2136.5" gradientUnits="userSpaceOnUse">
<stop offset="0.369792" stop-color="#181818" stop-opacity="0"/>
<stop offset="1" stop-color="#181818" stop-opacity="0.3"/>
</linearGradient>
<linearGradient id="paint7_linear_207_1210" x1="1940.5" y1="2136.5" x2="1533.5" y2="2136.5" gradientUnits="userSpaceOnUse">
<stop offset="0.369792" stop-color="#181818" stop-opacity="0"/>
<stop offset="1" stop-color="#181818" stop-opacity="0.3"/>
</linearGradient>
<linearGradient id="paint8_linear_207_1210" x1="707.5" y1="2136.5" x2="1114.5" y2="2136.5" gradientUnits="userSpaceOnUse">
<stop offset="0.369792" stop-color="#181818" stop-opacity="0"/>
<stop offset="1" stop-color="#181818" stop-opacity="0.3"/>
</linearGradient>
<linearGradient id="paint9_linear_207_1210" x1="1960.5" y1="2136.5" x2="1553.5" y2="2136.5" gradientUnits="userSpaceOnUse">
<stop offset="0.369792" stop-color="#181818" stop-opacity="0"/>
<stop offset="1" stop-color="#181818" stop-opacity="0.3"/>
</linearGradient>
<linearGradient id="paint10_linear_207_1210" x1="687.5" y1="2136.5" x2="1094.5" y2="2136.5" gradientUnits="userSpaceOnUse">
<stop offset="0.369792" stop-color="#181818" stop-opacity="0"/>
<stop offset="1" stop-color="#181818" stop-opacity="0.3"/>
</linearGradient>
<linearGradient id="paint11_linear_207_1210" x1="1779.5" y1="2136.5" x2="1433.5" y2="2136.5" gradientUnits="userSpaceOnUse">
<stop offset="0.369792" stop-color="#181818" stop-opacity="0"/>
<stop offset="1" stop-color="#181818" stop-opacity="0.3"/>
</linearGradient>
<linearGradient id="paint12_linear_207_1210" x1="786.5" y1="2136.5" x2="1193.5" y2="2136.5" gradientUnits="userSpaceOnUse">
<stop offset="0.369792" stop-color="#181818" stop-opacity="0"/>
<stop offset="1" stop-color="#181818" stop-opacity="0.3"/>
</linearGradient>
<linearGradient id="paint13_linear_207_1210" x1="1698.5" y1="2136.5" x2="1413.5" y2="2136.5" gradientUnits="userSpaceOnUse">
<stop offset="0.369792" stop-color="#181818" stop-opacity="0"/>
<stop offset="1" stop-color="#181818" stop-opacity="0.3"/>
</linearGradient>
<linearGradient id="paint14_linear_207_1210" x1="867.5" y1="2136.5" x2="1213.5" y2="2136.5" gradientUnits="userSpaceOnUse">
<stop offset="0.369792" stop-color="#181818" stop-opacity="0"/>
<stop offset="1" stop-color="#181818" stop-opacity="0.3"/>
</linearGradient>
<linearGradient id="paint15_linear_207_1210" x1="1617.5" y1="2136.5" x2="1393.5" y2="2136.5" gradientUnits="userSpaceOnUse">
<stop offset="0.369792" stop-color="#181818" stop-opacity="0"/>
<stop offset="1" stop-color="#181818" stop-opacity="0.3"/>
</linearGradient>
<linearGradient id="paint16_linear_207_1210" x1="948.5" y1="2136.5" x2="1233.5" y2="2136.5" gradientUnits="userSpaceOnUse">
<stop offset="0.369792" stop-color="#181818" stop-opacity="0"/>
<stop offset="1" stop-color="#181818" stop-opacity="0.3"/>
</linearGradient>
<linearGradient id="paint17_linear_207_1210" x1="1536.5" y1="2136.5" x2="1373.5" y2="2136.5" gradientUnits="userSpaceOnUse">
<stop offset="0.369792" stop-color="#181818" stop-opacity="0"/>
<stop offset="1" stop-color="#181818" stop-opacity="0.3"/>
</linearGradient>
<linearGradient id="paint18_linear_207_1210" x1="1029.5" y1="2136.5" x2="1253.5" y2="2136.5" gradientUnits="userSpaceOnUse">
<stop offset="0.369792" stop-color="#181818" stop-opacity="0"/>
<stop offset="1" stop-color="#181818" stop-opacity="0.3"/>
</linearGradient>
<linearGradient id="paint19_linear_207_1210" x1="1455.5" y1="2136.5" x2="1353.5" y2="2136.5" gradientUnits="userSpaceOnUse">
<stop offset="0.369792" stop-color="#181818" stop-opacity="0"/>
<stop offset="1" stop-color="#181818" stop-opacity="0.3"/>
</linearGradient>
<linearGradient id="paint20_linear_207_1210" x1="1110.5" y1="2136.5" x2="1273.5" y2="2136.5" gradientUnits="userSpaceOnUse">
<stop offset="0.369792" stop-color="#181818" stop-opacity="0"/>
<stop offset="1" stop-color="#181818" stop-opacity="0.3"/>
</linearGradient>
<linearGradient id="paint21_linear_207_1210" x1="1374.5" y1="2136.5" x2="1333.5" y2="2136.5" gradientUnits="userSpaceOnUse">
<stop offset="0.369792" stop-color="#181818" stop-opacity="0"/>
<stop offset="1" stop-color="#181818" stop-opacity="0.3"/>
</linearGradient>
<linearGradient id="paint22_linear_207_1210" x1="1191.5" y1="2136.5" x2="1293.5" y2="2136.5" gradientUnits="userSpaceOnUse">
<stop offset="0.369792" stop-color="#181818" stop-opacity="0"/>
<stop offset="1" stop-color="#181818" stop-opacity="0.3"/>
</linearGradient>
<linearGradient id="paint23_linear_207_1210" x1="1272.5" y1="2136.5" x2="1313.5" y2="2136.5" gradientUnits="userSpaceOnUse">
<stop offset="0.369792" stop-color="#181818" stop-opacity="0"/>
<stop offset="1" stop-color="#181818" stop-opacity="0.3"/>
</linearGradient>
<linearGradient id="paint24_linear_207_1210" x1="1860.5" y1="986.5" x2="1453.5" y2="986.5" gradientUnits="userSpaceOnUse">
<stop offset="0.708333" stop-color="#181818" stop-opacity="0"/>
<stop offset="1" stop-color="#181818" stop-opacity="0.3"/>
</linearGradient>
<linearGradient id="paint25_linear_207_1210" x1="1779.5" y1="986.5" x2="1433.5" y2="986.5" gradientUnits="userSpaceOnUse">
<stop offset="0.708333" stop-color="#181818" stop-opacity="0"/>
<stop offset="1" stop-color="#181818" stop-opacity="0.3"/>
</linearGradient>
<linearGradient id="paint26_linear_207_1210" x1="786.5" y1="986.5" x2="1193.5" y2="986.5" gradientUnits="userSpaceOnUse">
<stop offset="0.708333" stop-color="#181818" stop-opacity="0"/>
<stop offset="1" stop-color="#181818" stop-opacity="0.3"/>
</linearGradient>
<linearGradient id="paint27_linear_207_1210" x1="766.5" y1="986.5" x2="1173.5" y2="986.5" gradientUnits="userSpaceOnUse">
<stop offset="0.708333" stop-color="#181818" stop-opacity="0"/>
<stop offset="1" stop-color="#181818" stop-opacity="0.3"/>
</linearGradient>
<linearGradient id="paint28_linear_207_1210" x1="1880" y1="986.5" x2="1473" y2="986.5" gradientUnits="userSpaceOnUse">
<stop offset="0.708333" stop-color="#181818" stop-opacity="0"/>
<stop offset="1" stop-color="#181818" stop-opacity="0.3"/>
</linearGradient>
<linearGradient id="paint29_linear_207_1210" x1="746.5" y1="986.5" x2="1153.5" y2="986.5" gradientUnits="userSpaceOnUse">
<stop offset="0.708333" stop-color="#181818" stop-opacity="0"/>
<stop offset="1" stop-color="#181818" stop-opacity="0.3"/>
</linearGradient>
<linearGradient id="paint30_linear_207_1210" x1="1900" y1="986.5" x2="1493" y2="986.5" gradientUnits="userSpaceOnUse">
<stop offset="0.708333" stop-color="#181818" stop-opacity="0"/>
<stop offset="1" stop-color="#181818" stop-opacity="0.3"/>
</linearGradient>
<linearGradient id="paint31_linear_207_1210" x1="726.5" y1="986.5" x2="1133.5" y2="986.5" gradientUnits="userSpaceOnUse">
<stop offset="0.708333" stop-color="#181818" stop-opacity="0"/>
<stop offset="1" stop-color="#181818" stop-opacity="0.3"/>
</linearGradient>
<linearGradient id="paint32_linear_207_1210" x1="1920" y1="986.5" x2="1513" y2="986.5" gradientUnits="userSpaceOnUse">
<stop offset="0.708333" stop-color="#181818" stop-opacity="0"/>
<stop offset="1" stop-color="#181818" stop-opacity="0.3"/>
</linearGradient>
<linearGradient id="paint33_linear_207_1210" x1="706.5" y1="986.5" x2="1113.5" y2="986.5" gradientUnits="userSpaceOnUse">
<stop offset="0.708333" stop-color="#181818" stop-opacity="0"/>
<stop offset="1" stop-color="#181818" stop-opacity="0.3"/>
</linearGradient>
<linearGradient id="paint34_linear_207_1210" x1="1940" y1="986.5" x2="1533" y2="986.5" gradientUnits="userSpaceOnUse">
<stop offset="0.708333" stop-color="#181818" stop-opacity="0"/>
<stop offset="1" stop-color="#181818" stop-opacity="0.3"/>
</linearGradient>
<linearGradient id="paint35_linear_207_1210" x1="686.5" y1="986.5" x2="1093.5" y2="986.5" gradientUnits="userSpaceOnUse">
<stop offset="0.708333" stop-color="#181818" stop-opacity="0"/>
<stop offset="1" stop-color="#181818" stop-opacity="0.3"/>
</linearGradient>
<linearGradient id="paint36_linear_207_1210" x1="1960" y1="986.5" x2="1553" y2="986.5" gradientUnits="userSpaceOnUse">
<stop offset="0.708333" stop-color="#181818" stop-opacity="0"/>
<stop offset="1" stop-color="#181818" stop-opacity="0.3"/>
</linearGradient>
<linearGradient id="paint37_linear_207_1210" x1="1698.5" y1="986.5" x2="1413.5" y2="986.5" gradientUnits="userSpaceOnUse">
<stop offset="0.708333" stop-color="#181818" stop-opacity="0"/>
<stop offset="1" stop-color="#181818" stop-opacity="0.3"/>
</linearGradient>
<linearGradient id="paint38_linear_207_1210" x1="867.5" y1="986.5" x2="1213.5" y2="986.5" gradientUnits="userSpaceOnUse">
<stop offset="0.708333" stop-color="#181818" stop-opacity="0"/>
<stop offset="1" stop-color="#181818" stop-opacity="0.3"/>
</linearGradient>
<linearGradient id="paint39_linear_207_1210" x1="1617.5" y1="986.5" x2="1393.5" y2="986.5" gradientUnits="userSpaceOnUse">
<stop offset="0.708333" stop-color="#181818" stop-opacity="0"/>
<stop offset="1" stop-color="#181818" stop-opacity="0.3"/>
</linearGradient>
<linearGradient id="paint40_linear_207_1210" x1="948.5" y1="986.5" x2="1233.5" y2="986.5" gradientUnits="userSpaceOnUse">
<stop offset="0.708333" stop-color="#181818" stop-opacity="0"/>
<stop offset="1" stop-color="#181818" stop-opacity="0.3"/>
</linearGradient>
<linearGradient id="paint41_linear_207_1210" x1="1536.5" y1="986.5" x2="1373.5" y2="986.5" gradientUnits="userSpaceOnUse">
<stop offset="0.708333" stop-color="#181818" stop-opacity="0"/>
<stop offset="1" stop-color="#181818" stop-opacity="0.3"/>
</linearGradient>
<linearGradient id="paint42_linear_207_1210" x1="1029.5" y1="986.5" x2="1253.5" y2="986.5" gradientUnits="userSpaceOnUse">
<stop offset="0.708333" stop-color="#181818" stop-opacity="0"/>
<stop offset="1" stop-color="#181818" stop-opacity="0.3"/>
</linearGradient>
<linearGradient id="paint43_linear_207_1210" x1="1455.5" y1="986.5" x2="1353.5" y2="986.5" gradientUnits="userSpaceOnUse">
<stop offset="0.708333" stop-color="#181818" stop-opacity="0"/>
<stop offset="1" stop-color="#181818" stop-opacity="0.3"/>
</linearGradient>
<linearGradient id="paint44_linear_207_1210" x1="1110.5" y1="986.5" x2="1273.5" y2="986.5" gradientUnits="userSpaceOnUse">
<stop offset="0.708333" stop-color="#181818" stop-opacity="0"/>
<stop offset="1" stop-color="#181818" stop-opacity="0.3"/>
</linearGradient>
<linearGradient id="paint45_linear_207_1210" x1="1374.5" y1="986.5" x2="1333.5" y2="986.5" gradientUnits="userSpaceOnUse">
<stop offset="0.708333" stop-color="#181818" stop-opacity="0"/>
<stop offset="1" stop-color="#181818" stop-opacity="0.3"/>
</linearGradient>
<linearGradient id="paint46_linear_207_1210" x1="1191.5" y1="986.5" x2="1293.5" y2="986.5" gradientUnits="userSpaceOnUse">
<stop offset="0.708333" stop-color="#181818" stop-opacity="0"/>
<stop offset="1" stop-color="#181818" stop-opacity="0.3"/>
</linearGradient>
<linearGradient id="paint47_linear_207_1210" x1="1272.5" y1="986.5" x2="1313.5" y2="986.5" gradientUnits="userSpaceOnUse">
<stop offset="0.708333" stop-color="#181818" stop-opacity="0"/>
<stop offset="1" stop-color="#181818" stop-opacity="0.3"/>
</linearGradient>
</defs>
</svg>
