<svg viewBox="0 0 84 140" fill="none" xmlns="http://www.w3.org/2000/svg">
<path d="M30.9938 15.6931L30.8226 18.3457L28.1688 18.4952L8.45096 19.6063L3.10267 101.607L51.3237 135.813L80.9885 114.471L80.437 40.4014L31.6466 5.57496L30.9938 15.6931Z" fill="white" stroke="black" stroke-width="6"/>
<path d="M53.1836 50.6993L5.62968 16.7598L-0.000572205 103.084L51.3354 139.499L53.1836 50.6993Z" fill="black"/>
<path d="M29.2942 86.5751C32.3173 86.5751 34.9799 84.0306 36.3666 79.7049L41.6641 63.1233L40.416 62.1903L35.1185 78.772C33.5099 83.8185 30.3204 84.8787 28.0461 84.285C25.7995 83.6913 23.026 80.9772 22.6377 75.3793L20.5298 43.7852L19.1431 43.9972L21.2509 75.5913C21.6115 81.1468 24.1909 85.3876 27.7964 86.363C28.2957 86.4903 28.7949 86.5751 29.2942 86.5751Z" fill="white" stroke="white" stroke-width="2.5"/>
<path d="M80.99 114.47L80.5194 42H60.8298L56.1692 51.0527L54.4598 133.557L80.99 114.47Z" fill="white" stroke="black" stroke-width="6"/>
<g clip-path="url(#clip0_2435_3897)">
<path d="M49.217 146.569L50.8959 65.5352L9.73534 36.5078L4.6202 114.934L49.217 146.569Z" stroke="black" stroke-width="6.7563"/>
</g>
<path fill-rule="evenodd" clip-rule="evenodd" d="M83.9547 102.271L51.336 125.739L51.3394 125.573L51.336 125.739L0.436368 89.6328L0 96.3233L51.336 132.739L51.3394 132.573L51.336 132.739L84 109.239L83.9547 102.271Z" fill="white"/>
<defs>
<clipPath id="clip0_2435_3897">
<rect width="40.5378" height="74.3193" fill="white" transform="matrix(-1 0 0 1 49.5469 24.6426)"/>
</clipPath>
</defs>
</svg>
