<svg width="40" height="40" viewBox="0 0 40 40" fill="none" xmlns="http://www.w3.org/2000/svg">
<path d="M32.9349 21.6767L35.0116 23.7533L37.0883 21.6767" stroke="#FF4E02" stroke-width="2" stroke-linecap="round" stroke-linejoin="round"/>
<path d="M7.06495 18.3233L4.98829 16.2467L2.91162 18.3233" stroke="#FF4E02" stroke-width="2" stroke-linecap="round" stroke-linejoin="round"/>
<path d="M12.6449 17.8817C12.6449 16.53 13.7416 15.4333 15.0932 15.4333C16.4449 15.4333 17.5416 16.53 17.5416 17.8817C17.5416 20.9417 12.6466 20.9417 12.6466 24.565H17.5416" stroke="#FF4E02" stroke-width="2" stroke-linecap="round" stroke-linejoin="round"/>
<path d="M26.49 20.05L22.3033 20.005C22.0667 20.0017 21.875 19.81 21.875 19.5717V15.435" stroke="#FF4E02" stroke-width="2" stroke-linecap="round" stroke-linejoin="round"/>
<path d="M26.4832 15.5333V24.5667" stroke="#FF4E02" stroke-width="2" stroke-linecap="round" stroke-linejoin="round"/>
<path d="M31.705 29.38C28.9533 32.8033 24.7383 35 20.0033 35H19.9999H19.9966C11.7066 35 4.98828 28.2833 4.98828 19.9967C4.98828 18.84 5.13161 17.7183 5.37995 16.6367" stroke="#FF4E02" stroke-width="2" stroke-linecap="round" stroke-linejoin="round"/>
<path d="M8.30164 10.62C11.0516 7.19667 15.2683 5 20.0033 5C28.2933 5 35.0116 11.7167 35.0116 20.0033C35.0116 21.16 34.8683 22.2817 34.62 23.3633" stroke="#FF4E02" stroke-width="2" stroke-linecap="round" stroke-linejoin="round"/>
</svg>
